<svg width="30" height="29" viewBox="0 0 30 29" fill="none" xmlns="http://www.w3.org/2000/svg">
<path d="M2.19848 19.2523C2.03709 19.4913 1.93262 19.7646 1.89319 20.051C1.85376 20.3373 1.88045 20.629 1.97117 20.9032C2.06188 21.1775 2.21419 21.4269 2.41622 21.6321C2.61825 21.8374 2.86456 21.9929 3.13598 22.0865C2.92499 22.3982 2.81241 22.7668 2.81301 23.1441C2.81301 23.6452 3.01055 24.1258 3.36218 24.4802C3.71381 24.8345 4.19073 25.0336 4.68801 25.0336H7.50051V26.4507C7.50051 27.077 7.74744 27.6778 8.18698 28.1207C8.62651 28.5636 9.22266 28.8125 9.84426 28.8125C10.4659 28.8125 11.062 28.5636 11.5015 28.1207C11.9411 27.6778 12.188 27.077 12.188 26.4507V25.0336H15.0005C15.7893 25.0324 16.5514 24.7455 17.1477 24.2252C17.7441 23.7049 18.1349 22.9859 18.2489 22.1994H19.688V23.1441C19.688 23.2694 19.7374 23.3895 19.8253 23.4781C19.9132 23.5667 20.0324 23.6165 20.1568 23.6165H22.5005V24.0888C22.5005 24.2141 22.5499 24.3343 22.6378 24.4228C22.7257 24.5114 22.8449 24.5612 22.9693 24.5612H28.5943C28.7186 24.5612 28.8378 24.5114 28.9257 24.4228C29.0136 24.3343 29.063 24.2141 29.063 24.0888V21.6968H28.1255V23.6165H23.438V13.2245H28.1255V18.9155H29.063V12.7521C29.063 12.6268 29.0136 12.5067 28.9257 12.4181C28.8378 12.3295 28.7186 12.2798 28.5943 12.2798H22.9693C22.8449 12.2798 22.7257 12.3295 22.6378 12.4181C22.5499 12.5067 22.5005 12.6268 22.5005 12.7521V13.2245H20.1568C20.0324 13.2245 19.9132 13.2743 19.8253 13.3628C19.7374 13.4514 19.688 13.5716 19.688 13.6968V14.6416H18.2485C18.1347 13.855 17.744 13.1359 17.1477 12.6156C16.5514 12.0952 15.7893 11.8084 15.0005 11.8074H12.188V10.2925C13.0993 9.82341 13.8515 9.09164 14.3488 8.19036C14.8462 7.28908 15.0661 6.25906 14.9806 5.23143C14.8952 4.20379 14.5082 3.22502 13.869 2.41971C13.2298 1.6144 12.3672 1.01897 11.3911 0.709227C11.3209 0.686965 11.2464 0.681694 11.1738 0.693842C11.1011 0.70599 11.0323 0.735216 10.973 0.77915C10.9136 0.823084 10.8654 0.88049 10.8322 0.946716C10.799 1.01294 10.7817 1.08613 10.7818 1.16033V5.19431H8.90676V1.16033C8.90684 1.08613 8.88956 1.01294 8.85634 0.946716C8.82311 0.88049 8.77487 0.823084 8.71552 0.77915C8.65618 0.735216 8.58739 0.70599 8.51474 0.693842C8.4421 0.681694 8.36763 0.686965 8.29738 0.709227C7.32129 1.01897 6.45873 1.6144 5.81951 2.41971C5.1803 3.22502 4.79333 4.20379 4.70788 5.23143C4.62243 6.25906 4.84236 7.28908 5.33967 8.19036C5.83698 9.09164 6.58918 9.82341 7.50051 10.2925V12.7521H3.75051C3.41034 12.7523 3.07663 12.8457 2.78512 13.0224C2.49361 13.199 2.25528 13.4523 2.09567 13.755C1.93605 14.0577 1.86117 14.3985 1.87903 14.7408C1.89689 15.0831 2.00683 15.4141 2.19707 15.6983C1.82954 15.8252 1.51056 16.0648 1.28473 16.3834C1.0589 16.702 0.9375 17.0837 0.9375 17.4753C0.9375 17.8668 1.0589 18.2486 1.28473 18.5672C1.51056 18.8858 1.82954 19.1253 2.19707 19.2523H2.19848ZM2.81301 20.3099C2.81301 20.0594 2.91178 19.8191 3.0876 19.6419C3.26341 19.4647 3.50187 19.3652 3.75051 19.3652H7.50051C7.60904 19.365 7.71665 19.3852 7.81785 19.4247C7.96637 19.478 8.09907 19.5684 8.20355 19.6874C8.30804 19.8064 8.38091 19.9501 8.41536 20.1052C8.44981 20.2602 8.44472 20.4215 8.40056 20.574C8.35641 20.7266 8.27463 20.8653 8.16285 20.9774C8.06126 21.0801 7.9369 21.157 7.80004 21.2018C7.70419 21.2375 7.6027 21.2554 7.50051 21.2547H3.75051C3.50187 21.2547 3.26341 21.1551 3.0876 20.978C2.91178 20.8008 2.81301 20.5605 2.81301 20.3099ZM3.75051 23.1441C3.75051 22.8936 3.84928 22.6533 4.0251 22.4761C4.20091 22.2989 4.43937 22.1994 4.68801 22.1994H8.43801C8.54654 22.1992 8.65415 22.2194 8.75535 22.2589C8.93739 22.3229 9.09502 22.4426 9.20621 22.6014C9.31741 22.7601 9.3766 22.9498 9.37551 23.1441C9.37502 23.1905 9.37095 23.2368 9.36332 23.2825C9.36332 23.292 9.36051 23.3019 9.3591 23.3127C9.35395 23.3383 9.34457 23.3652 9.33707 23.3912C9.32328 23.4501 9.30381 23.5075 9.27895 23.5626C9.24711 23.6242 9.20927 23.6824 9.16598 23.7365C9.14561 23.7628 9.1237 23.7879 9.10035 23.8116C8.99876 23.9143 8.8744 23.9912 8.73754 24.0359C8.64169 24.0717 8.5402 24.0896 8.43801 24.0888H4.68801C4.43937 24.0888 4.20091 23.9893 4.0251 23.8121C3.84928 23.635 3.75051 23.3947 3.75051 23.1441ZM11.2505 26.4507C11.2505 26.8265 11.1024 27.1869 10.8386 27.4527C10.5749 27.7184 10.2172 27.8677 9.84426 27.8677C9.4713 27.8677 9.11361 27.7184 8.84989 27.4527C8.58617 27.1869 8.43801 26.8265 8.43801 26.4507V25.0336C8.64754 25.0356 8.85566 24.999 9.05207 24.9254C9.32048 24.8349 9.56405 24.6822 9.76316 24.4795C9.81157 24.431 9.85682 24.3794 9.89863 24.325C9.9813 24.2225 10.0532 24.1117 10.1133 23.9944L10.1166 23.9873L10.1199 23.9816C10.1419 23.9344 10.1621 23.8834 10.1785 23.8399C10.2195 23.7383 10.2509 23.6329 10.2722 23.5253C10.2722 23.5144 10.2764 23.5012 10.2783 23.4899L10.283 23.4634C10.2882 23.428 10.2938 23.3893 10.2994 23.3387C10.305 23.2768 10.3107 23.2084 10.3107 23.1465C10.3128 22.7581 10.1949 22.3788 9.97317 22.0611C9.75147 21.7435 9.43705 21.5034 9.07363 21.3742C9.06754 21.3713 9.06051 21.369 9.05394 21.3666L9.05676 21.3619C9.06145 21.3553 9.06426 21.3477 9.06895 21.3406C9.12407 21.2547 9.17204 21.1643 9.21238 21.0704C9.22645 21.0393 9.23723 21.0071 9.24941 20.976C9.27754 20.9006 9.30072 20.8234 9.31879 20.745C9.32629 20.7129 9.33473 20.6807 9.34082 20.6477C9.38092 20.4382 9.38377 20.2233 9.34926 20.0128C9.34457 19.984 9.3352 19.9571 9.32957 19.9287C9.31672 19.8597 9.30013 19.7914 9.27988 19.7242C9.27191 19.6992 9.25973 19.677 9.25082 19.6519C9.22681 19.5836 9.1988 19.5167 9.16691 19.4516C9.15895 19.4356 9.14816 19.4209 9.13973 19.4044C9.10217 19.3331 9.05989 19.2645 9.01316 19.1989V19.1956C9.03895 19.1871 9.06004 19.172 9.0877 19.1626C9.22049 19.1138 9.34998 19.0564 9.47535 18.9906C9.50629 18.9746 9.5391 18.9609 9.5691 18.9434C9.71848 18.8589 9.86096 18.7625 9.9952 18.6552C10.0271 18.6297 10.0561 18.6014 10.0889 18.5749C10.1926 18.4867 10.2908 18.392 10.3829 18.2915C10.4147 18.2561 10.4466 18.2221 10.4766 18.1852C10.5892 18.0514 10.6912 17.909 10.7818 17.7592C10.7846 17.7639 10.7883 17.7681 10.7916 17.7729C10.865 17.8932 10.9461 18.0085 11.0344 18.1182C11.0663 18.1578 11.101 18.1947 11.1343 18.233C11.1675 18.2712 11.2093 18.3246 11.2505 18.3666V26.4507ZM20.6255 14.1692H22.5005V22.6717H20.6255V14.1692ZM17.3443 15.1139C17.3443 15.2392 17.3936 15.3594 17.4816 15.448C17.5695 15.5365 17.6887 15.5863 17.813 15.5863H19.688V21.2547H17.813C17.6887 21.2547 17.5695 21.3044 17.4816 21.393C17.3936 21.4816 17.3443 21.6017 17.3443 21.727C17.3431 22.3531 17.0959 22.9532 16.6566 23.3958C16.2173 23.8385 15.6218 24.0877 15.0005 24.0888H12.188V19.0431C12.627 19.255 13.1075 19.3651 13.5943 19.3652C13.7186 19.3652 13.8378 19.3154 13.9257 19.2269C14.0136 19.1383 14.063 19.0181 14.063 18.8928C14.063 18.7676 14.0136 18.6474 13.9257 18.5588C13.8378 18.4702 13.7186 18.4205 13.5943 18.4205C12.9735 18.4176 12.379 18.1679 11.9401 17.7256C11.5012 17.2833 11.2533 16.6842 11.2505 16.0587C11.2505 15.9334 11.2011 15.8132 11.1132 15.7247C11.0253 15.6361 10.9061 15.5863 10.7818 15.5863C10.6574 15.5863 10.5382 15.6361 10.4503 15.7247C10.3624 15.8132 10.313 15.9334 10.313 16.0587C10.3117 16.2094 10.296 16.3597 10.2661 16.5074C10.2568 16.5546 10.2408 16.6019 10.2286 16.6468C10.2055 16.7429 10.1765 16.8376 10.1419 16.9302C10.1213 16.9821 10.095 17.0313 10.0716 17.0813C10.0341 17.1614 9.99216 17.2393 9.94598 17.3147C9.91551 17.3619 9.88223 17.4092 9.84801 17.4564C9.7974 17.5259 9.74294 17.5924 9.68488 17.6557C9.64645 17.6978 9.60707 17.7398 9.56535 17.779C9.50138 17.8386 9.43409 17.8944 9.36379 17.9462C9.3202 17.9798 9.27707 18.0138 9.23113 18.044C9.15043 18.0946 9.06685 18.1403 8.98082 18.181C8.9377 18.2022 8.89691 18.2282 8.85238 18.2452C8.72604 18.2975 8.59538 18.3384 8.46191 18.3676C8.45348 18.3676 8.44598 18.3732 8.43754 18.3751V14.207C8.4374 13.9458 8.50842 13.6896 8.64285 13.4663C8.77093 13.2499 8.95226 13.0705 9.16929 12.9454C9.38632 12.8203 9.63172 12.7537 9.88176 12.7521H15.0005C15.6219 12.7529 16.2176 13.0019 16.657 13.4447C17.0963 13.8875 17.3435 14.4878 17.3443 15.1139ZM5.62551 5.66668C5.62236 4.87397 5.84045 4.09634 6.25487 3.42256C6.6693 2.74877 7.26336 2.20597 7.96926 1.85612V5.66668C7.96926 5.79196 8.01864 5.9121 8.10655 6.00069C8.19446 6.08927 8.31369 6.13904 8.43801 6.13904H11.2505C11.3748 6.13904 11.4941 6.08927 11.582 6.00069C11.6699 5.9121 11.7193 5.79196 11.7193 5.66668V1.85612C12.4388 2.21588 13.0416 2.77519 13.4565 3.46828C13.8715 4.16138 14.0815 4.95946 14.0618 5.76869C14.0421 6.57792 13.7935 7.36467 13.3454 8.03643C12.8972 8.7082 12.268 9.23706 11.5318 9.56084C11.4482 9.59759 11.3771 9.65809 11.3271 9.73494C11.2772 9.81179 11.2506 9.90165 11.2505 9.99352V11.8074H9.88176C9.76257 11.8082 9.64362 11.8183 9.52598 11.8376C9.48988 11.8433 9.45473 11.8518 9.4191 11.8594C9.33713 11.8758 9.25607 11.8966 9.17629 11.9217C9.13879 11.934 9.10223 11.9463 9.0652 11.96C8.98301 11.9909 8.90257 12.0264 8.82426 12.0663C8.79707 12.08 8.76941 12.0918 8.7427 12.1064C8.63819 12.1639 8.53807 12.2291 8.44316 12.3015L8.43801 12.3048V9.99352C8.43796 9.90165 8.41133 9.81179 8.36138 9.73494C8.31142 9.65809 8.24031 9.59759 8.15676 9.56084C7.40454 9.23041 6.76436 8.68595 6.31473 7.99422C5.86511 7.3025 5.62557 6.49358 5.62551 5.66668ZM3.75051 13.6968H7.50051V15.5863H3.75051C3.50187 15.5863 3.26341 15.4868 3.0876 15.3096C2.91178 15.1324 2.81301 14.8921 2.81301 14.6416C2.81301 14.391 2.91178 14.1507 3.0876 13.9736C3.26341 13.7964 3.50187 13.6968 3.75051 13.6968ZM2.15066 16.8083C2.23739 16.7203 2.34058 16.6504 2.45427 16.6028C2.56797 16.5552 2.6899 16.5308 2.81301 16.531H7.50051V18.4205H2.81301C2.62775 18.4203 2.44672 18.3647 2.29276 18.2609C2.13879 18.1571 2.01881 18.0096 1.94794 17.8371C1.87708 17.6646 1.85852 17.4749 1.8946 17.2918C1.93068 17.1087 2.01978 16.9404 2.15066 16.8083Z" fill="#53BED2"/>
<path d="M10.313 25.9783H9.37552V26.923H10.313V25.9783Z" fill="#53BED2"/>
<path d="M29.063 19.8603H28.1255V20.7516H29.063V19.8603Z" fill="#53BED2"/>
<path d="M25.313 21.727H24.3755V22.6717H25.313V21.727Z" fill="#53BED2"/>
<path d="M10.7818 7.08374H8.90677V8.02847H10.7818V7.08374Z" fill="#53BED2"/>
</svg>
