<svg width="16" height="20" viewBox="0 0 16 20" fill="none" xmlns="http://www.w3.org/2000/svg">
<path d="M6 0H8.99963C8.37194 0.835661 8 1.87439 8 3C8 3.255 8.01909 3.50554 8.05591 3.75027L8 3.75C5 3.75 4 6.02 4 8.5V15H12V8.5C12 8.29679 11.9933 8.09499 11.9793 7.89574C12.3088 7.96408 12.6502 8 13 8C13.3373 8 13.6667 7.96661 13.9853 7.90295C13.9951 8.09956 14 8.2987 14 8.5V14L16 15V17H0V15L2 14V8.5C2 5.42 3.14 2.86 6 2.18V0Z" fill="#53BED2"/>
<path d="M10 3C10 2.72521 10.0369 2.45905 10.1061 2.20621C10.4542 0.934568 11.6179 0 13 0C14.6569 0 16 1.34315 16 3C16 4.42229 15.0102 5.61341 13.6819 5.92216C13.4628 5.97308 13.2346 6 13 6C12.3719 6 11.7889 5.80699 11.3071 5.47706C10.9122 5.20667 10.5853 4.84432 10.3572 4.42088C10.1293 3.99795 10 3.51408 10 3Z" fill="#53BED2"/>
<path d="M8 20C9.1 20 10 19.1 10 18H6C6 19.1 6.9 20 8 20Z" fill="#53BED2"/>
</svg>
