<svg width="14" height="15" viewBox="0 0 14 15" fill="none" xmlns="http://www.w3.org/2000/svg">
<path fill-rule="evenodd" clip-rule="evenodd" d="M9.5 4.50001C9.5 5.88072 8.38071 7.00001 7 7.00001C5.61929 7.00001 4.5 5.88072 4.5 4.50001C4.5 3.1193 5.61929 2.00001 7 2.00001C8.38071 2.00001 9.5 3.1193 9.5 4.50001ZM11.1667 4.50001C11.1667 6.8012 9.30119 8.66668 7 8.66668C4.69881 8.66668 2.83333 6.8012 2.83333 4.50001C2.83333 2.19882 4.69881 0.333344 7 0.333344C9.30119 0.333344 11.1667 2.19882 11.1667 4.50001ZM2.85373 8.90861C2.96897 8.81963 3.10862 8.76478 3.25413 8.75986C3.68003 8.74545 3.8963 8.84471 4.06265 9.03277C4.38363 9.39565 4.1727 9.98487 3.79517 10.2885C3.1011 10.8467 2.56445 11.5811 2.25503 12.4165H11.7442C11.4348 11.5813 10.8983 10.847 10.2045 10.2889C9.82696 9.98516 9.61616 9.39584 9.93719 9.0329C10.1036 8.84479 10.3198 8.74557 10.7456 8.76011C10.8911 8.76508 11.0306 8.81993 11.1458 8.90887C12.4969 9.95229 13.4293 11.494 13.6552 13.2517C13.7138 13.7082 13.3351 14.0832 12.8749 14.0832H1.12433C0.664088 14.0832 0.285364 13.7082 0.344025 13.2517C0.569916 11.4939 1.50248 9.95203 2.85373 8.90861Z" fill="#222222"/>
</svg>
