<svg width="12" height="13" viewBox="0 0 12 13" fill="none" xmlns="http://www.w3.org/2000/svg">
<path opacity="0.3" d="M7.71967 9.53033C7.42678 9.23744 7.42678 8.76256 7.71967 8.46967C8.01256 8.17678 8.48744 8.17678 8.78033 8.46967L11.7803 11.4697C12.0732 11.7626 12.0732 12.2374 11.7803 12.5303C11.4874 12.8232 11.0126 12.8232 10.7197 12.5303L7.71967 9.53033Z" fill="#868697"/>
<path d="M5.25 9C7.32107 9 9 7.32107 9 5.25C9 3.17893 7.32107 1.5 5.25 1.5C3.17893 1.5 1.5 3.17893 1.5 5.25C1.5 7.32107 3.17893 9 5.25 9ZM5.25 10.5C2.35051 10.5 0 8.1495 0 5.25C0 2.35051 2.35051 0 5.25 0C8.1495 0 10.5 2.35051 10.5 5.25C10.5 8.1495 8.1495 10.5 5.25 10.5Z" fill="#868697"/>
</svg>
