<svg width="18" height="18" viewBox="0 0 18 18" fill="none" xmlns="http://www.w3.org/2000/svg">
<path d="M8.99999 0.666667C7.35182 0.666667 5.74065 1.15541 4.37024 2.07109C2.99983 2.98676 1.93173 4.28825 1.301 5.81097C0.670267 7.33369 0.505239 9.00924 0.826783 10.6258C1.14833 12.2423 1.942 13.7271 3.10744 14.8926C4.27287 16.058 5.75773 16.8517 7.37424 17.1732C8.99075 17.4948 10.6663 17.3297 12.189 16.699C13.7117 16.0683 15.0132 15.0002 15.9289 13.6298C16.8446 12.2593 17.3333 10.6482 17.3333 9C17.3333 7.90565 17.1178 6.82202 16.699 5.81097C16.2802 4.79992 15.6664 3.88126 14.8925 3.10744C14.1187 2.33362 13.2001 1.71979 12.189 1.301C11.178 0.882215 10.0943 0.666667 8.99999 0.666667ZM8.99999 15.6667C7.68145 15.6667 6.39252 15.2757 5.29619 14.5431C4.19986 13.8106 3.34538 12.7694 2.8408 11.5512C2.33621 10.333 2.20419 8.9926 2.46143 7.6994C2.71866 6.40619 3.3536 5.21831 4.28595 4.28595C5.2183 3.3536 6.40619 2.71867 7.69939 2.46143C8.9926 2.2042 10.333 2.33622 11.5512 2.8408C12.7694 3.34539 13.8106 4.19987 14.5431 5.2962C15.2757 6.39253 15.6667 7.68146 15.6667 9C15.6667 10.7681 14.9643 12.4638 13.714 13.714C12.4638 14.9643 10.7681 15.6667 8.99999 15.6667ZM10.75 7.025L9.83333 7.55833V4.83333C9.83333 4.61232 9.74553 4.40036 9.58925 4.24408C9.43297 4.0878 9.22101 4 8.99999 4C8.77898 4 8.56702 4.0878 8.41074 4.24408C8.25446 4.40036 8.16666 4.61232 8.16666 4.83333V9C8.16666 9 8.16666 9 8.16666 9.05C8.16274 9.10549 8.16274 9.16118 8.16666 9.21667C8.17956 9.26784 8.19628 9.31798 8.21666 9.36667C8.21666 9.36667 8.21666 9.36667 8.21666 9.41667C8.25646 9.47578 8.30106 9.53153 8.34999 9.58333C8.41731 9.65008 8.49643 9.70377 8.58333 9.74167H8.64999C8.75854 9.79749 8.87802 9.82878 8.99999 9.83333C9.09712 9.83056 9.19301 9.81081 9.28333 9.775H9.35833H9.41666L11.5833 8.525C11.7756 8.41449 11.9161 8.23213 11.9739 8.01802C12.0318 7.80392 12.0022 7.57562 11.8917 7.38333C11.7812 7.19105 11.5988 7.05054 11.3847 6.99272C11.1706 6.9349 10.9423 6.96449 10.75 7.075V7.025Z" fill="#CCCCCC"/>
</svg>
