<svg width="60" height="60" viewBox="0 0 60 60" fill="none" xmlns="http://www.w3.org/2000/svg">
<path d="M30 60C46.5685 60 60 46.5685 60 30C60 13.4315 46.5685 0 30 0C13.4315 0 0 13.4315 0 30C0 46.5685 13.4315 60 30 60Z" fill="white"/>
<path d="M29.9985 58.0612C45.4963 58.0612 58.0597 45.4977 58.0597 29.9999C58.0597 14.5022 45.4963 1.93872 29.9985 1.93872C14.5007 1.93872 1.93726 14.5022 1.93726 29.9999C1.93726 45.4977 14.5007 58.0612 29.9985 58.0612Z" fill="url(#paint0_linear_157_9)"/>
<mask id="mask0_157_9" style="mask-type:alpha" maskUnits="userSpaceOnUse" x="1" y="1" width="58" height="58">
<path d="M29.9985 58.0612C45.4963 58.0612 58.0597 45.4977 58.0597 29.9999C58.0597 14.5022 45.4963 1.93872 29.9985 1.93872C14.5007 1.93872 1.93726 14.5022 1.93726 29.9999C1.93726 45.4977 14.5007 58.0612 29.9985 58.0612Z" fill="white"/>
</mask>
<g mask="url(#mask0_157_9)">
<path d="M24.9995 41.0283C26.62 38.3332 30.3404 33.1671 39.1997 25.9078C52.5683 14.9535 39.9487 4.93682 26.3934 10.2739C24.9433 10.8448 20.9246 8.56011 17.2026 10.968C14.8015 12.5214 15.7362 13.7384 14.8013 14.9555C13.8664 16.1726 10.2618 16.1014 9.47261 19.2623C9.0051 21.1347 10.2995 23.0959 10.1267 24.505C9.95395 25.9141 8.5877 27.1847 8.52273 29.0451C8.40725 32.3522 10.9906 35.1266 14.2929 35.242C14.3109 38.4582 16.8551 41.1204 20.0885 41.2333C21.1203 41.2694 22.1003 41.0415 22.9635 40.6103C23.8479 41.4251 24.6069 41.6811 24.9995 41.0283Z" fill="url(#paint1_linear_157_9)"/>
<path fill-rule="evenodd" clip-rule="evenodd" d="M25.323 38.231C25.323 36.5473 25.2658 28.2428 25.2686 28.1024C20.6462 28.7837 20.7397 19.9912 25.4166 22.1426C26.4455 22.7973 29.3451 22.1426 29.0645 16.7174C34.1155 22.1426 39.9797 15.815 40.4826 20.9711C41.1693 28.0117 40.4786 35.3798 36.103 35.3803C35.6842 35.3803 35.2088 35.3328 34.6768 35.2378C34.6768 36.2979 34.6768 37.5451 34.6768 38.231C34.6768 40.1018 38.0441 41.0371 38.0441 41.0371C38.0441 41.0371 32.2277 46.5176 29.8128 46.4882C27.398 46.4587 21.9557 41.0371 21.9557 41.0371C21.9557 41.0371 25.323 40.1018 25.323 38.231Z" fill="url(#paint2_linear_157_9)"/>
<mask id="mask1_157_9" style="mask-type:alpha" maskUnits="userSpaceOnUse" x="21" y="16" width="20" height="31">
<path fill-rule="evenodd" clip-rule="evenodd" d="M25.323 38.231C25.323 36.5473 25.2658 28.2428 25.2686 28.1024C20.6462 28.7837 20.7397 19.9912 25.4166 22.1426C26.4455 22.7973 29.3451 22.1426 29.0645 16.7174C34.1155 22.1426 39.9797 15.815 40.4826 20.9711C41.1693 28.0117 40.4786 35.3798 36.103 35.3803C35.6842 35.3803 35.2088 35.3328 34.6768 35.2378C34.6768 36.2979 34.6768 37.5451 34.6768 38.231C34.6768 40.1018 38.0441 41.0371 38.0441 41.0371C38.0441 41.0371 32.2277 46.5176 29.8128 46.4882C27.398 46.4587 21.9557 41.0371 21.9557 41.0371C21.9557 41.0371 25.323 40.1018 25.323 38.231Z" fill="white"/>
</mask>
<g mask="url(#mask1_157_9)">
<g style="mix-blend-mode:multiply" opacity="0.7">
<path fill-rule="evenodd" clip-rule="evenodd" d="M34.6776 35.2377C30.8756 34.4136 28.1985 32.4128 28.1985 32.4128C28.1985 32.4128 29.8137 36.3602 34.6719 37.1085L34.6776 35.2377Z" fill="url(#paint3_linear_157_9)"/>
</g>
</g>
<path fill-rule="evenodd" clip-rule="evenodd" d="M47.2103 46.6493C48.5676 49.6653 49.2681 58.8092 49.2681 58.8092H10.7307C10.7307 58.8092 11.4313 49.6653 12.7886 46.6493C13.9775 44.0072 21.8128 40.9737 24.109 40.1017C25.4353 41.5848 27.3348 42.5337 29.9994 42.5337C32.664 42.5337 34.5636 41.5848 35.8899 40.1017C38.1861 40.9737 46.0213 44.0072 47.2103 46.6493Z" fill="url(#paint4_linear_157_9)"/>
<mask id="mask2_157_9" style="mask-type:alpha" maskUnits="userSpaceOnUse" x="10" y="40" width="40" height="19">
<path fill-rule="evenodd" clip-rule="evenodd" d="M47.2103 46.6493C48.5676 49.6653 49.2681 58.8092 49.2681 58.8092H10.7307C10.7307 58.8092 11.4313 49.6653 12.7886 46.6493C13.9775 44.0072 21.8128 40.9737 24.109 40.1017C25.4353 41.5848 27.3348 42.5337 29.9994 42.5337C32.664 42.5337 34.5636 41.5848 35.8899 40.1017C38.1861 40.9737 46.0213 44.0072 47.2103 46.6493Z" fill="white"/>
</mask>
<g mask="url(#mask2_157_9)">
</g>
<path fill-rule="evenodd" clip-rule="evenodd" d="M12.4288 46.7104C13.4468 44.7746 16.7975 42.7429 19.8958 41.3738C21.441 40.691 26.0712 60.3059 26.0712 60.3059H10.5595C10.5595 60.3059 10.3726 50.6204 12.4288 46.7104Z" fill="url(#paint5_linear_157_9)"/>
</g>
<defs>
<linearGradient id="paint0_linear_157_9" x1="58.0597" y1="58.0612" x2="58.0597" y2="1.93872" gradientUnits="userSpaceOnUse">
<stop stop-color="#F8AB8A"/>
<stop offset="1" stop-color="#FFD2C2"/>
</linearGradient>
<linearGradient id="paint1_linear_157_9" x1="45.1568" y1="9.17859" x2="44.0077" y2="42.0837" gradientUnits="userSpaceOnUse">
<stop stop-color="#1D0024"/>
<stop offset="1" stop-color="#100014"/>
</linearGradient>
<linearGradient id="paint2_linear_157_9" x1="21.8548" y1="16.7174" x2="21.8548" y2="46.4883" gradientUnits="userSpaceOnUse">
<stop stop-color="#E6864E"/>
<stop offset="1" stop-color="#EB965E"/>
</linearGradient>
<linearGradient id="paint3_linear_157_9" x1="32.4389" y1="32.6272" x2="33.408" y2="36.9938" gradientUnits="userSpaceOnUse">
<stop stop-color="#E68349"/>
<stop offset="1" stop-color="#F09960"/>
</linearGradient>
<linearGradient id="paint4_linear_157_9" x1="49.2681" y1="58.8092" x2="49.2681" y2="40.1017" gradientUnits="userSpaceOnUse">
<stop stop-color="#FFC9B3"/>
<stop offset="1" stop-color="#FFD2C2"/>
</linearGradient>
<linearGradient id="paint5_linear_157_9" x1="26.0712" y1="60.3059" x2="26.0712" y2="41.3508" gradientUnits="userSpaceOnUse">
<stop stop-color="#FCF2EB"/>
<stop offset="1" stop-color="#FFF9F5"/>
</linearGradient>
</defs>
</svg>
